<mxfile host="65bd71144e">
    <diagram id="Rm_PgW7agUKxLYxLlwai" name="Page-1">
        <mxGraphModel dx="1502" dy="997" grid="1" gridSize="10" guides="1" tooltips="1" connect="1" arrows="1" fold="1" page="1" pageScale="1" pageWidth="850" pageHeight="1100" math="0" shadow="0">
            <root>
                <mxCell id="0"/>
                <mxCell id="1" parent="0"/>
                <mxCell id="2" value="" style="rounded=0;whiteSpace=wrap;html=1;" vertex="1" parent="1">
                    <mxGeometry x="150" y="250" width="130" height="600" as="geometry"/>
                </mxCell>
                <mxCell id="3" value="" style="rounded=0;whiteSpace=wrap;html=1;" vertex="1" parent="1">
                    <mxGeometry x="280" y="360" width="420" height="490" as="geometry"/>
                </mxCell>
                <mxCell id="4" value="Home" style="rounded=0;whiteSpace=wrap;html=1;" vertex="1" parent="1">
                    <mxGeometry x="162.5" y="380" width="105" height="60" as="geometry"/>
                </mxCell>
                <mxCell id="5" value="Alternate Tunings" style="rounded=0;whiteSpace=wrap;html=1;" vertex="1" parent="1">
                    <mxGeometry x="161.25" y="460" width="105" height="60" as="geometry"/>
                </mxCell>
                <mxCell id="6" value="Artists" style="rounded=0;whiteSpace=wrap;html=1;" vertex="1" parent="1">
                    <mxGeometry x="161.25" y="540" width="105" height="60" as="geometry"/>
                </mxCell>
                <mxCell id="7" value="Songs" style="rounded=0;whiteSpace=wrap;html=1;" vertex="1" parent="1">
                    <mxGeometry x="161.25" y="620" width="105" height="60" as="geometry"/>
                </mxCell>
                <mxCell id="8" value="Header" style="rounded=0;whiteSpace=wrap;html=1;" vertex="1" parent="1">
                    <mxGeometry x="280" y="250" width="420" height="110" as="geometry"/>
                </mxCell>
                <mxCell id="9" value="Footer" style="rounded=0;whiteSpace=wrap;html=1;" vertex="1" parent="1">
                    <mxGeometry x="150" y="800" width="130" height="50" as="geometry"/>
                </mxCell>
                <mxCell id="10" value="Contact" style="rounded=0;whiteSpace=wrap;html=1;" vertex="1" parent="1">
                    <mxGeometry x="161.25" y="700" width="105" height="60" as="geometry"/>
                </mxCell>
                <mxCell id="11" value="Interacttive Toggle Side&lt;br&gt;Navbar" style="text;html=1;align=center;verticalAlign=middle;resizable=0;points=[];autosize=1;strokeColor=none;fillColor=none;" vertex="1" parent="1">
                    <mxGeometry x="143.75" y="250" width="140" height="30" as="geometry"/>
                </mxCell>
                <mxCell id="14" value="Log In" style="text;html=1;align=center;verticalAlign=middle;resizable=0;points=[];autosize=1;strokeColor=none;fillColor=none;" vertex="1" parent="1">
                    <mxGeometry x="640" y="260" width="50" height="20" as="geometry"/>
                </mxCell>
                <mxCell id="15" value="Tunings View" style="text;html=1;align=center;verticalAlign=middle;resizable=0;points=[];autosize=1;strokeColor=none;fillColor=none;" vertex="1" parent="1">
                    <mxGeometry x="445" y="380" width="90" height="20" as="geometry"/>
                </mxCell>
                <mxCell id="16" value="Tuning" style="text;html=1;align=center;verticalAlign=middle;resizable=0;points=[];autosize=1;strokeColor=none;fillColor=none;" vertex="1" parent="1">
                    <mxGeometry x="330" y="410" width="50" height="20" as="geometry"/>
                </mxCell>
                <mxCell id="17" value="Open" style="rounded=0;whiteSpace=wrap;html=1;" vertex="1" parent="1">
                    <mxGeometry x="340" y="460" width="50" height="30" as="geometry"/>
                </mxCell>
                <mxCell id="18" value="A" style="rounded=0;whiteSpace=wrap;html=1;" vertex="1" parent="1">
                    <mxGeometry x="410" y="460" width="50" height="30" as="geometry"/>
                </mxCell>
                <mxCell id="19" value="E" style="rounded=0;whiteSpace=wrap;html=1;" vertex="1" parent="1">
                    <mxGeometry x="410" y="500" width="50" height="30" as="geometry"/>
                </mxCell>
                <mxCell id="20" value="D" style="rounded=0;whiteSpace=wrap;html=1;" vertex="1" parent="1">
                    <mxGeometry x="340" y="500" width="50" height="30" as="geometry"/>
                </mxCell>
                <mxCell id="21" value="F" style="rounded=0;whiteSpace=wrap;html=1;" vertex="1" parent="1">
                    <mxGeometry x="480" y="500" width="50" height="30" as="geometry"/>
                </mxCell>
                <mxCell id="22" value="C" style="rounded=0;whiteSpace=wrap;html=1;" vertex="1" parent="1">
                    <mxGeometry x="550" y="460" width="50" height="30" as="geometry"/>
                </mxCell>
                <mxCell id="23" value="G" style="rounded=0;whiteSpace=wrap;html=1;" vertex="1" parent="1">
                    <mxGeometry x="550" y="500" width="50" height="30" as="geometry"/>
                </mxCell>
                <mxCell id="24" value="B" style="rounded=0;whiteSpace=wrap;html=1;" vertex="1" parent="1">
                    <mxGeometry x="480" y="460" width="50" height="30" as="geometry"/>
                </mxCell>
                <mxCell id="28" value="Chord Diagrams - Hover or Click to play audio sample?" style="text;html=1;align=center;verticalAlign=middle;resizable=0;points=[];autosize=1;strokeColor=none;fillColor=none;" vertex="1" parent="1">
                    <mxGeometry x="330" y="430" width="310" height="20" as="geometry"/>
                </mxCell>
                <mxCell id="29" value="Artists Using This Tuning - Link" style="text;html=1;align=center;verticalAlign=middle;resizable=0;points=[];autosize=1;strokeColor=none;fillColor=none;" vertex="1" parent="1">
                    <mxGeometry x="325" y="580" width="180" height="20" as="geometry"/>
                </mxCell>
                <mxCell id="30" value="Songs Using This Tuning - Link" style="text;html=1;align=center;verticalAlign=middle;resizable=0;points=[];autosize=1;strokeColor=none;fillColor=none;" vertex="1" parent="1">
                    <mxGeometry x="325" y="600" width="180" height="20" as="geometry"/>
                </mxCell>
                <mxCell id="32" value="" style="rounded=0;whiteSpace=wrap;html=1;" vertex="1" parent="1">
                    <mxGeometry x="290" y="262.5" width="20" height="20" as="geometry"/>
                </mxCell>
                <mxCell id="13" value="" style="line;strokeWidth=4;html=1;perimeter=backbonePerimeter;points=[];outlineConnect=0;" vertex="1" parent="1">
                    <mxGeometry x="290" y="260" width="20" height="25" as="geometry"/>
                </mxCell>
                <mxCell id="44" value="Search Bar" style="rounded=1;whiteSpace=wrap;html=1;" vertex="1" parent="1">
                    <mxGeometry x="153.75" y="310" width="120" height="30" as="geometry"/>
                </mxCell>
            </root>
        </mxGraphModel>
    </diagram>
</mxfile>